<svg width="200" height="200" viewBox="0 0 200 200" xmlns="http://www.w3.org/2000/svg">
  <!-- 고양이 몸체 -->
  <ellipse cx="100" cy="140" rx="45" ry="35" fill="#2D2D2D"/>
  
  <!-- 고양이 머리 -->
  <circle cx="100" cy="90" r="40" fill="#2D2D2D"/>
  
  <!-- 고양이 귀 -->
  <path d="M 70 65 L 80 45 L 90 65 Z" fill="#2D2D2D"/>
  <path d="M 110 65 L 120 45 L 130 65 Z" fill="#2D2D2D"/>
  
  <!-- 귀 안쪽 -->
  <path d="M 74 60 L 80 50 L 86 60 Z" fill="#FFB6C1"/>
  <path d="M 114 60 L 120 50 L 126 60 Z" fill="#FFB6C1"/>
  
  <!-- 눈 -->
  <circle cx="85" cy="85" r="12" fill="#87CEEB"/>
  <circle cx="115" cy="85" r="12" fill="#87CEEB"/>
  
  <!-- 눈동자 -->
  <circle cx="85" cy="85" r="8" fill="#2D2D2D"/>
  <circle cx="115" cy="85" r="8" fill="#2D2D2D"/>
  
  <!-- 눈 하이라이트 -->
  <circle cx="87" cy="82" r="3" fill="white"/>
  <circle cx="117" cy="82" r="3" fill="white"/>
  
  <!-- 코 -->
  <path d="M 95 95 L 100 100 L 105 95 Z" fill="#FFB6C1"/>
  
  <!-- 입 -->
  <path d="M 100 102 Q 95 105 90 102" stroke="#2D2D2D" stroke-width="2" fill="none"/>
  <path d="M 100 102 Q 105 105 110 102" stroke="#2D2D2D" stroke-width="2" fill="none"/>
  
  <!-- 수염 -->
  <line x1="60" y1="90" x2="75" y2="88" stroke="#2D2D2D" stroke-width="2"/>
  <line x1="60" y1="95" x2="75" y2="95" stroke="#2D2D2D" stroke-width="2"/>
  <line x1="60" y1="100" x2="75" y2="102" stroke="#2D2D2D" stroke-width="2"/>
  
  <line x1="125" y1="88" x2="140" y2="90" stroke="#2D2D2D" stroke-width="2"/>
  <line x1="125" y1="95" x2="140" y2="95" stroke="#2D2D2D" stroke-width="2"/>
  <line x1="125" y1="102" x2="140" y2="100" stroke="#2D2D2D" stroke-width="2"/>
  
  <!-- 팔 -->
  <ellipse cx="70" cy="130" rx="12" ry="20" fill="#2D2D2D"/>
  <ellipse cx="130" cy="130" rx="12" ry="20" fill="#2D2D2D"/>
  
  <!-- 손에 든 선물상자 -->
  <rect x="60" y="145" width="15" height="12" fill="#F4D03F" rx="2"/>
  <rect x="66" y="145" width="3" height="12" fill="#E74C3C"/>
  <rect x="60" y="149" width="15" height="2" fill="#E74C3C"/>
  
  <!-- 손에 든 티켓 -->
  <rect x="125" y="145" width="12" height="15" fill="#AED6F1" rx="1"/>
  <line x1="127" y1="148" x2="135" y2="148" stroke="#2D2D2D" stroke-width="1"/>
  <line x1="127" y1="151" x2="133" y2="151" stroke="#2D2D2D" stroke-width="1"/>
  <line x1="127" y1="154" x2="135" y2="154" stroke="#2D2D2D" stroke-width="1"/>
</svg>
